<svg width="650" height="450" xmlns="http://www.w3.org/2000/svg" fill="none">

 <g>
  <title>Layer 1</title>
  <path id="svg_1" fill="#936EFF" d="m329.433,277.078l-8.132,13.739c-7.248,12.244 -25.353,12.244 -32.601,0l-8.132,-13.739c-6.307,-10.656 -9.46,-15.982 -14.526,-18.93c-5.065,-2.946 -11.443,-3.056 -24.198,-3.275c-18.83,-0.325 -30.64,-1.479 -40.545,-5.581c-18.377,-7.613 -32.978,-22.212 -40.59,-40.59c-5.709,-13.782 -5.709,-31.256 -5.709,-66.201l0,-15.001c0,-49.1012 0,-73.652 11.052,-91.6872c6.184,-10.0918 14.669,-18.5765 24.761,-24.7608c18.035,-11.052 42.586,-11.052 91.687,-11.052l45.001,0c49.101,0 73.651,0 91.687,11.052c10.093,6.1843 18.577,14.669 24.761,24.7608c11.052,18.0352 11.052,42.586 11.052,91.6872l0,15.001c0,34.945 0,52.419 -5.709,66.201c-7.612,18.378 -22.212,32.977 -40.59,40.59c-9.905,4.102 -21.714,5.256 -40.545,5.581c-12.756,0.219 -19.133,0.329 -24.198,3.275c-5.066,2.946 -8.22,8.274 -14.526,18.93z"/>
  <path id="svg_2" fill="white" d="m380.004,135.002c0,8.285 -6.716,15 -15,15c-8.285,0 -15,-6.715 -15,-15c0,-8.285 6.715,-15 15,-15c8.284,0 15,6.715 15,15z"/>
  <path id="svg_3" fill="white" d="m319.996,135.002c0,8.285 -6.715,15 -15,15c-8.284,0 -15,-6.715 -15,-15c0,-8.285 6.716,-15 15,-15c8.285,0 15,6.715 15,15z"/>
  <path id="svg_4" fill="white" d="m260,135.002c0,8.285 -6.716,15 -15,15c-8.284,0 -15,-6.715 -15,-15c0,-8.285 6.716,-15 15,-15c8.284,0 15,6.715 15,15z"/>
  <polyline stroke-linecap="round" id="svg_6" points="843.9999822527172,217.59999192357074 843.9999822527172,217.59999192357074 843.9999822527172,217.59999192357074 " fill="none"/>
  <path stroke="null" d="m46.99999,312.59998c0,1.69388 0,3.38775 0,5.08163c0,1.69388 0,3.38775 171,3.38775c0,0 0,1.69388 0,3.38775c0,1.69388 78.45567,2.8685 171,5.08163c65.43876,1.56496 171,5.08163 171,6.77551c0,1.69388 0,3.38775 0,5.08163c0,3.38775 0,5.08163 0,6.77551c0,1.69388 0,5.08163 0,6.77551c0,1.69388 0,5.08163 0,6.77551c0,0 0,3.38775 0,5.08163c0,1.69388 0,1.69388 0,3.38775c0,3.38775 0,5.08163 0,8.46939c0,1.69388 0,3.38775 0,5.08163c0,5.08163 0,6.77551 0,10.16326l0,1.69388l0,0" id="svg_7" fill="none"/>
  <text font-style="normal" font-weight="normal" transform="matrix(3.49331 0 0 3.5536 -111.382 -749.394)" stroke="null" xml:space="preserve" text-anchor="start" font-family="'Cabin'" font-size="44" stroke-width="0" id="svg_9" y="336.35865" x="32.41032" fill="#ffffff">MSGHUB</text>
 </g>
</svg>